<svg width="29" height="40" viewBox="0 0 29 40" fill="none" xmlns="http://www.w3.org/2000/svg">
<path d="M10.574 12.0431C11.1516 11.19 12.0352 10.5451 13.0321 10.2681C12.8549 10.3896 12.7065 10.5448 12.5592 10.6989C13.0721 10.6328 13.6049 10.6924 14.0803 10.9003C14.1416 11.3506 14.1747 11.8051 14.2466 12.2537C14.3055 11.803 14.3502 11.3506 14.4063 10.8996C14.8703 10.6996 15.3912 10.629 15.8917 10.6996L15.9254 10.7263C15.9265 10.7184 15.9285 10.703 15.9296 10.6955C15.775 10.5482 15.6314 10.3879 15.4528 10.2684C16.4483 10.5461 17.332 11.189 17.9089 12.0417C17.7395 11.9122 17.5461 11.8215 17.3547 11.7304C17.575 12.1917 17.6865 12.7109 17.6332 13.2215C17.2156 13.4146 16.7912 13.5941 16.3784 13.7975C16.8294 13.717 17.2769 13.6181 17.7261 13.5304C18.0776 13.9146 18.2972 14.404 18.397 14.9109C18.4958 14.7314 18.5936 14.5503 18.6552 14.3544C18.69 15.3595 18.3595 16.3715 17.7382 17.1643C17.7946 16.9739 17.8246 16.7777 17.8511 16.5818C17.4769 16.9331 17.0139 17.1961 16.5092 17.3071C16.1912 16.9691 15.8855 16.6191 15.5598 16.2883C15.7791 16.6944 16.0146 17.0917 16.2404 17.4941C15.9788 17.9427 15.5805 18.304 15.1237 18.5503C15.3196 18.5855 15.5168 18.6174 15.7165 18.6232C14.7709 18.9585 13.7099 18.9575 12.7643 18.6222C12.9654 18.6181 13.164 18.5855 13.3616 18.5503C12.9048 18.304 12.5065 17.9427 12.2449 17.4938C12.47 17.0917 12.7068 16.6955 12.9241 16.2893C12.5977 16.6201 12.2941 16.9729 11.9719 17.3078C11.47 17.1931 11.0067 16.9342 10.6349 16.5814C10.6607 16.779 10.69 16.9766 10.7478 17.1681C10.1261 16.3735 9.79394 15.3612 9.82836 14.3544C9.89273 14.5513 9.99084 14.7338 10.09 14.915C10.1836 14.4051 10.4091 13.9153 10.7595 13.5294C11.2091 13.6167 11.6566 13.7157 12.1075 13.7965C11.6951 13.592 11.2697 13.4136 10.8521 13.2198C10.7994 12.7102 10.9099 12.1914 11.1306 11.7307C10.9378 11.8211 10.744 11.9136 10.574 12.0431ZM14.2425 12.4578C13.5967 12.9253 12.9499 13.3917 12.3034 13.8581C12.5495 14.615 12.7977 15.3708 13.0449 16.1273C13.8449 16.1256 14.6449 16.1301 15.4449 16.1249C15.6876 15.3677 15.9409 14.614 16.1829 13.8564C15.5347 13.392 14.89 12.9229 14.2425 12.4578Z" fill="white"/>
<path d="M13.0274 0H13.1224C13.1754 0.0458904 13.2253 0.099315 13.2305 0.173288C13.5799 2.04384 13.9321 3.91404 14.2804 5.78493C14.3111 5.87911 14.2567 5.99109 14.1534 6.00377C13.4439 6.13048 12.7527 6.36541 12.121 6.71233C11.0684 7.28527 10.1747 8.14829 9.58095 9.18664C9.54342 9.2524 9.49351 9.32808 9.40711 9.32534C9.29213 9.30274 9.19816 9.22774 9.09764 9.17329C7.50832 8.25445 5.91865 7.33664 4.32863 6.41883C4.26151 6.38219 4.19404 6.31644 4.21366 6.23253C4.2529 6.1137 4.33173 6.01335 4.39231 5.90548C5.6288 3.86267 7.46563 2.19007 9.61158 1.13082C10.689 0.595205 11.8439 0.219863 13.0274 0V0Z" fill="#951B80"/>
<path d="M16.2272 1.4139C17.9797 1.36835 19.7404 1.69096 21.3638 2.34883C22.6134 2.85568 23.7821 3.56013 24.8107 4.42931C24.8681 4.47931 24.9315 4.52452 24.98 4.58411C25.0244 4.65637 24.9983 4.74849 24.9401 4.80466C23.6878 6.2413 22.4354 7.67794 21.1838 9.11493C21.1449 9.15637 21.1009 9.20465 21.0389 9.20294C20.9601 9.20808 20.9057 9.14267 20.8496 9.09883C19.4303 7.86904 17.4589 7.30089 15.5986 7.58753C15.5281 7.59438 15.4465 7.62144 15.3852 7.57246C15.3342 7.54301 15.3198 7.48205 15.3122 7.42829C15.0441 5.62692 14.7766 3.8252 14.5084 2.02383C14.4947 1.92007 14.4716 1.81698 14.4671 1.71219C14.4644 1.63377 14.5325 1.5687 14.6083 1.56014C15.1439 1.47555 15.685 1.42897 16.2272 1.4139Z" fill="#E40613"/>
<path d="M2.08684 6.38193C2.15156 6.34323 2.22625 6.36481 2.28718 6.39939C3.98116 7.30453 5.67754 8.2059 7.37117 9.11206C7.47892 9.16104 7.47788 9.30008 7.41317 9.38432C6.50233 11.0326 6.36842 13.0809 7.05861 14.8323C7.08167 14.9059 7.13331 14.9864 7.09097 15.0627C7.05069 15.1412 6.95362 15.1562 6.87995 15.1898C5.11988 15.8614 3.36154 16.5371 1.60181 17.2093C1.5278 17.2429 1.42832 17.2374 1.38185 17.1631C1.32367 17.0514 1.28787 16.9295 1.24175 16.8124C0.304741 14.2706 0.231075 11.4275 1.02212 8.83809C1.26687 8.02782 1.59596 7.24323 1.99699 6.49734C2.02143 6.45556 2.04381 6.4083 2.08684 6.38193Z" fill="#01509F"/>
<path d="M24.5657 6.69627C24.6314 6.6562 24.7126 6.68634 24.7632 6.73668C26.2476 8.11168 27.3839 9.85175 28.0582 11.7538C28.5071 13.01 28.7457 14.337 28.7856 15.6689V16.3487C28.777 16.4675 28.7791 16.5881 28.7557 16.7055C28.7257 16.7922 28.6262 16.8131 28.545 16.8048C26.6276 16.7103 24.7095 16.622 22.7922 16.5257C22.6741 16.5295 22.6111 16.4069 22.6328 16.3028C22.7436 14.4315 21.9853 12.5312 20.6149 11.2452C20.5605 11.1904 20.492 11.1401 20.4696 11.0631C20.4565 10.9908 20.5075 10.9326 20.5526 10.8833C21.8214 9.55483 23.0896 8.22538 24.3577 6.89627C24.4252 6.82812 24.4854 6.75038 24.5657 6.69627Z" fill="#F28800"/>
<path d="M13.6275 9.7547C15.0013 9.57148 16.4437 10.0194 17.465 10.9523C18.3645 11.7557 18.9383 12.9088 19.0285 14.1088C19.1304 15.316 18.7432 16.5544 17.971 17.491C17.1962 18.4468 16.0392 19.0848 14.8124 19.2246C13.4681 19.391 12.0633 18.9554 11.0557 18.054C10.1446 17.2568 9.55799 16.1037 9.4585 14.8999C9.36246 13.8362 9.64163 12.7437 10.2378 11.8554C10.9931 10.7119 12.2616 9.92114 13.6275 9.7547ZM10.5742 12.0431C10.7442 11.9136 10.938 11.8211 11.1308 11.7307C10.9101 12.1913 10.7996 12.7102 10.8523 13.2198C11.2699 13.4136 11.6953 13.592 12.1077 13.7965C11.6568 13.7157 11.2093 13.6167 10.7597 13.5294C10.4093 13.9153 10.1838 14.405 10.0902 14.915C9.99103 14.7338 9.89292 14.5513 9.82855 14.3544C9.79413 15.3612 10.1263 16.3735 10.748 17.1681C10.6902 16.9766 10.6609 16.779 10.6351 16.5814C11.0069 16.9342 11.4702 17.1931 11.9721 17.3078C12.2943 16.9729 12.5979 16.6201 12.9242 16.2893C12.707 16.6955 12.4702 17.0917 12.2451 17.4937C12.5067 17.9427 12.905 18.304 13.3618 18.5502C13.1642 18.5855 12.9656 18.6181 12.7645 18.6222C13.7101 18.9574 14.7711 18.9585 15.7167 18.6232C15.517 18.6174 15.3198 18.5855 15.1239 18.5502C15.5807 18.304 15.979 17.9427 16.2406 17.4941C16.0148 17.0917 15.7793 16.6944 15.56 16.2883C15.8857 16.6191 16.1914 16.9691 16.5094 17.3071C17.0141 17.1961 17.4771 16.9331 17.8513 16.5818C17.8247 16.7776 17.7948 16.9739 17.7383 17.1643C18.3597 16.3715 18.6902 15.3595 18.6554 14.3544C18.5938 14.5503 18.496 14.7314 18.3972 14.9109C18.2974 14.404 18.0778 13.9146 17.7263 13.5304C17.2771 13.6181 16.8296 13.717 16.3786 13.7975C16.7914 13.5941 17.2158 13.4146 17.6334 13.2215C17.6867 12.7109 17.5752 12.1917 17.3549 11.7304C17.5463 11.8215 17.7397 11.9122 17.9091 12.0417C17.3322 11.189 16.4485 10.5461 15.453 10.2684C15.6316 10.3879 15.7752 10.5482 15.9297 10.6955C15.9287 10.703 15.9266 10.7184 15.9256 10.7263L15.8919 10.6996C15.3914 10.629 14.8705 10.6996 14.4065 10.8996C14.3504 11.3506 14.3057 11.803 14.2468 12.2537C14.1748 11.805 14.1418 11.3506 14.0805 10.9003C13.6051 10.6924 13.0723 10.6328 12.5594 10.6989C12.7067 10.5448 12.8551 10.3896 13.0323 10.2681C12.0354 10.5451 11.1518 11.19 10.5742 12.0431Z" fill="#1D1D1B"/>
<path d="M14.2428 12.458C14.8903 12.9231 15.535 13.3923 16.1832 13.8566C15.9412 14.6142 15.6879 15.3679 15.4452 16.1251C14.6452 16.1303 13.8452 16.1258 13.0452 16.1275C12.798 15.371 12.5498 14.6152 12.3037 13.8584C12.9502 13.3919 13.597 12.9255 14.2428 12.458Z" fill="#1D1D1B"/>
<path d="M5.63087 16.4832C5.74034 16.4195 5.86116 16.4986 5.89008 16.6106C6.63259 18.3626 8.18922 19.7465 10.0212 20.2876C10.1317 20.3041 10.2181 20.4113 10.1713 20.5215C9.60057 22.3482 9.02674 24.1743 8.45393 26C8.43431 26.1133 8.30935 26.1702 8.20677 26.1222C6.75789 25.6828 5.39025 24.9808 4.18956 24.0619C2.45015 22.7376 1.06427 20.9571 0.214355 18.9489V18.8702C0.249123 18.8126 0.301102 18.7684 0.364786 18.7452C2.12107 17.9934 3.87459 17.2345 5.63087 16.4832Z" fill="#0090D7"/>
<path d="M20.9135 17.205C20.9562 17.1971 20.9995 17.1957 21.0436 17.2005C22.9486 17.3505 24.8539 17.4961 26.7589 17.6447C26.8646 17.6406 26.9507 17.7372 26.929 17.842C26.7575 20.32 25.8161 22.7348 24.2811 24.692C23.5469 25.6324 22.678 26.4683 21.709 27.167C21.6329 27.2341 21.5104 27.2091 21.4591 27.1252C20.3648 25.6433 19.2711 24.1608 18.1775 22.6783C18.1162 22.5861 18.0264 22.5063 17.9995 22.3968C17.9837 22.2964 18.0791 22.2406 18.1476 22.1899C19.6605 21.095 20.6526 19.3252 20.7951 17.4697C20.8009 17.3731 20.7982 17.2385 20.9135 17.205Z" fill="#FEED01"/>
<path d="M16.1678 21.3206C16.2538 21.2788 16.3443 21.3408 16.385 21.4158C17.4538 23.0014 18.5268 24.5843 19.5949 26.1703C19.6862 26.2829 19.587 26.4158 19.4758 26.4631C17.0476 28.0905 14.0428 28.834 11.1313 28.5415C10.3895 28.4682 9.65382 28.3319 8.93644 28.1309C8.83868 28.1124 8.7836 28.0021 8.81975 27.912C9.3299 26.0665 9.84384 24.222 10.3554 22.3771C10.3736 22.2607 10.5051 22.2062 10.6077 22.2555C12.0311 22.6607 13.5901 22.5586 14.9519 21.9829C15.3808 21.8079 15.7805 21.5716 16.1678 21.3206Z" fill="#00963F"/>
<path d="M0.309256 31.7939C0.867258 31.7932 1.42526 31.7935 1.98326 31.7939C1.98292 33.4425 1.98361 35.0911 1.98326 36.7401C2.65796 36.7404 3.33266 36.7397 4.00736 36.7404C4.00736 37.226 4.00908 37.712 4.00667 38.1976C2.77431 38.198 1.5423 38.198 0.310288 38.1976C0.307879 36.063 0.309944 33.9284 0.309256 31.7939Z" fill="white"/>
<path d="M10.7157 31.793C11.2737 31.7937 11.8317 31.7933 12.3897 31.7933C12.3901 33.4423 12.3897 35.0909 12.3901 36.7399C13.0648 36.7419 13.7398 36.7358 14.4149 36.743C14.4135 37.2272 14.4149 37.7115 14.4142 38.1957C13.1815 38.1954 11.9484 38.1954 10.7157 38.1954C10.7157 36.0615 10.7154 33.9272 10.7157 31.793Z" fill="white"/>
<path d="M5.37756 33.4246C5.79098 33.1181 6.30733 32.9527 6.823 32.965C7.13143 32.9677 7.44227 33.0366 7.71215 33.1876C7.91077 33.2951 8.08599 33.439 8.25432 33.5876C8.25398 33.4133 8.25432 33.2393 8.25432 33.0653C8.76861 33.065 9.28289 33.065 9.79718 33.0653C9.79683 34.7756 9.79752 36.4855 9.79683 38.1958C9.27497 38.1962 8.75312 38.1958 8.23126 38.1958C8.23057 38.0307 8.23022 37.8657 8.23126 37.701C7.81508 38.1064 7.23263 38.3359 6.65019 38.3222C6.11043 38.3177 5.56207 38.1482 5.14864 37.7958C4.74176 37.4568 4.48358 36.9674 4.36861 36.4571C4.27394 36.026 4.25123 35.5756 4.32868 35.1403C4.45019 34.4667 4.82128 33.8325 5.37756 33.4246ZM6.77343 34.4386C6.51904 34.4972 6.28393 34.6414 6.1242 34.8479C5.81336 35.2458 5.79477 35.8164 6.002 36.2653C6.14313 36.578 6.43126 36.8249 6.77102 36.8962C7.28978 37.0102 7.87979 36.7777 8.14072 36.3085C8.44365 35.778 8.32523 35.0246 7.82954 34.6489C7.53487 34.4208 7.13315 34.3557 6.77343 34.4386Z" fill="white"/>
<path d="M18.5169 33.2424C18.9965 32.9606 19.5882 32.901 20.1259 33.026C20.5128 33.1147 20.8446 33.3544 21.1138 33.6376C21.1135 33.4469 21.1135 33.2558 21.1142 33.065C21.6109 33.0653 22.108 33.0647 22.6051 33.0653C22.6054 34.3715 22.6051 35.6777 22.6051 36.9842C22.5992 37.3373 22.6254 37.6931 22.5689 38.0434C22.4901 38.5647 22.2264 39.0606 21.8161 39.3979C21.3479 39.7903 20.7335 39.9698 20.1297 40.0003H19.8154C19.3004 39.9739 18.7803 39.8493 18.3407 39.5729C17.8563 39.2794 17.507 38.7729 17.4316 38.2109C18.0144 38.2109 18.5971 38.2102 19.1799 38.2112C19.2553 38.3184 19.3331 38.429 19.4446 38.5027C19.6288 38.6277 19.8632 38.6321 20.0784 38.6273C20.3923 38.6119 20.7369 38.5092 20.9235 38.2397C21.0866 38.0058 21.045 37.7071 21.0415 37.4393C20.7279 37.7013 20.3569 37.9013 19.9551 37.9879C19.5076 38.0804 19.0305 38.0153 18.6199 37.8184C18.066 37.5537 17.6632 37.0356 17.4773 36.4602C17.2701 35.8208 17.2856 35.1126 17.5145 34.4811C17.6987 33.9739 18.0446 33.5153 18.5169 33.2424ZM19.6113 34.3393C19.2722 34.4321 19.0188 34.7239 18.92 35.0527C18.7813 35.5013 18.836 36.0373 19.1558 36.3986C19.4663 36.7503 20.0109 36.804 20.4274 36.6243C20.6811 36.5153 20.8866 36.3068 21.0016 36.0582C21.1641 35.716 21.1524 35.3082 21.0147 34.9602C20.9104 34.6962 20.6942 34.478 20.4261 34.379C20.1675 34.2845 19.8773 34.2667 19.6113 34.3393Z" fill="white"/>
<path d="M24.3949 33.4043C24.9326 33.0153 25.6413 32.8708 26.2885 33.0239C26.6561 33.1126 26.9694 33.3389 27.2455 33.5879C27.2451 33.4132 27.2451 33.2389 27.2455 33.0646C27.7587 33.0646 28.2723 33.0646 28.7859 33.065V38.1958C28.2637 38.1954 27.7415 38.1958 27.2196 38.1954C27.2196 38.0307 27.219 37.8663 27.22 37.7019C27.0358 37.878 26.8231 38.0245 26.5894 38.128C25.9842 38.4019 25.2651 38.3762 24.6592 38.1191C24.103 37.8824 23.6768 37.3954 23.4716 36.8341C23.2699 36.2834 23.2193 35.6766 23.326 35.1006C23.4551 34.4304 23.8345 33.8033 24.3949 33.4043ZM25.7415 34.4437C25.5212 34.4985 25.3171 34.6173 25.1656 34.7862C24.8176 35.1704 24.7759 35.7581 24.9732 36.2228C25.0954 36.518 25.3412 36.7653 25.6489 36.8649C26.1625 37.0321 26.7807 36.8365 27.0823 36.3845C27.4382 35.8608 27.3425 35.0684 26.8431 34.667C26.5405 34.4197 26.1164 34.3502 25.7415 34.4437Z" fill="white"/>
<path d="M15.6842 30.8411C15.941 30.7846 16.2212 30.8336 16.4377 30.9843C16.7172 31.1716 16.8773 31.5185 16.8346 31.8518C16.7974 32.237 16.4976 32.5788 16.1197 32.6685C15.7906 32.7569 15.4154 32.6511 15.1923 32.3925C14.9214 32.0918 14.8808 31.6155 15.0935 31.2723C15.2215 31.0572 15.4391 30.897 15.6842 30.8411Z" fill="white"/>
<path d="M15.1072 33.0652C15.6266 33.0649 16.1457 33.0649 16.6652 33.0652V38.1957C16.1461 38.1957 15.6266 38.196 15.1075 38.1957C15.1068 36.4854 15.1075 34.7755 15.1072 33.0652Z" fill="white"/>
</svg>
