<svg width="232" height="38" viewBox="0 0 232 38" fill="none" xmlns="http://www.w3.org/2000/svg">
<path d="M32.289 2.14731C33.0908 1.2886 34.1799 0.806189 35.3138 0.806189C40.4158 0.806189 45.2238 0.806191 49.9587 0.806201C59.4818 0.806222 64.2505 13.1364 57.5167 20.3476L42.8487 36.0555C42.1753 36.7767 41.0239 36.2659 41.0239 35.246V21.4111L42.719 19.5958C44.0658 18.1536 43.112 15.6875 41.2073 15.6875H19.6452L32.289 2.14731Z" fill="#BF1718"/>
<path d="M28.38 34.9514C27.5782 35.8102 26.4892 36.2926 25.3552 36.2926C20.2533 36.2926 15.4453 36.2926 10.7104 36.2926C1.18723 36.2925 -3.58152 23.9624 3.15237 16.7511L17.8204 1.04324C18.4937 0.322109 19.6451 0.832844 19.6451 1.85267L19.6452 15.6875L17.9501 17.5029C16.6033 18.9452 17.5571 21.4112 19.4618 21.4112L41.024 21.4111L28.38 34.9514Z" fill="#BF1718"/>
<path d="M145.737 12.6966V30.5356H150.826V12.6966H145.737Z" fill="white"/>
<path d="M146.091 9.72894C146.693 10.3479 147.428 10.6574 148.298 10.6574C149.167 10.6574 149.898 10.3479 150.488 9.72894C151.089 9.10996 151.39 8.35838 151.39 7.47416C151.39 6.56784 151.089 5.81072 150.488 5.20283C149.898 4.58388 149.167 4.2744 148.298 4.2744C147.428 4.2744 146.693 4.58388 146.091 5.20283C145.49 5.81072 145.189 6.56784 145.189 7.47416C145.189 8.35838 145.49 9.10996 146.091 9.72894Z" fill="white"/>
<path fill-rule="evenodd" clip-rule="evenodd" d="M153.697 37.4989V12.6966H158.529V14.4705H158.592C158.896 14.1618 159.224 13.88 159.576 13.625C160.714 12.8071 162.024 12.3982 163.506 12.3982C164.805 12.3982 166.045 12.7463 167.226 13.4427C168.418 14.1389 169.384 15.1724 170.125 16.5429C170.866 17.9135 171.225 19.6211 171.204 21.6658C171.215 23.2132 171.005 24.5617 170.576 25.7112C170.146 26.8496 169.566 27.7946 168.837 28.5462C168.107 29.2977 167.29 29.8614 166.388 30.2372C165.487 30.613 164.574 30.8009 163.65 30.8009C162.19 30.8009 160.88 30.3809 159.721 29.541C159.429 29.3267 159.152 29.0946 158.891 28.8446H158.786V37.4989H153.697ZM162.459 26.424C163.21 26.413 163.87 26.2086 164.44 25.8106C165.008 25.4127 165.455 24.849 165.776 24.1196C166.099 23.3901 166.255 22.539 166.243 21.5663C166.255 20.5717 166.094 19.7206 165.761 19.0132C165.438 18.2948 164.982 17.7476 164.391 17.3718C163.801 16.9851 163.124 16.7971 162.362 16.8082C161.643 16.7971 160.998 16.9795 160.43 17.3553C159.86 17.7311 159.41 18.2782 159.077 18.9966C158.744 19.704 158.578 20.5606 158.578 21.5663C158.578 22.539 158.744 23.3901 159.077 24.1196C159.42 24.849 159.882 25.4127 160.462 25.8106C161.042 26.2086 161.707 26.413 162.459 26.424Z" fill="white"/>
<path d="M176.105 30.2538C177.05 30.6185 178.038 30.8009 179.068 30.8009C180.249 30.8009 181.328 30.5633 182.305 30.088C183.293 29.6128 184.082 28.9496 184.673 28.0986C185.275 27.2364 185.574 26.2472 185.574 25.1309C185.574 24.2466 185.392 23.5006 185.028 22.8928C184.673 22.2848 184.221 21.7874 183.675 21.4006C183.137 21.0137 182.584 20.7098 182.016 20.4888C181.446 20.2566 180.947 20.0798 180.517 19.9582C179.959 19.7924 179.423 19.6211 178.907 19.4443C178.392 19.2675 177.967 19.0574 177.635 18.8142C177.302 18.5711 177.135 18.2506 177.135 17.8526C177.135 17.4548 177.302 17.1232 177.635 16.8579C177.967 16.5927 178.386 16.46 178.891 16.46C179.492 16.46 179.986 16.6258 180.372 16.9574C180.77 17.289 181.07 17.6316 181.275 17.9853L185.188 16.2445C184.695 15.095 183.857 14.1721 182.676 13.4758C181.505 12.7795 180.184 12.4313 178.714 12.4313C177.533 12.4313 176.48 12.6579 175.557 13.111C174.644 13.5642 173.92 14.1942 173.383 15.001C172.856 15.7969 172.594 16.7197 172.594 17.7698C172.594 18.7645 172.819 19.6101 173.27 20.3064C173.721 21.0027 174.306 21.5774 175.026 22.0306C175.756 22.4727 176.529 22.8209 177.345 23.0751C177.7 23.1746 178.086 23.2851 178.505 23.4067C178.934 23.5283 179.342 23.6719 179.729 23.8378C180.115 24.0035 180.431 24.2025 180.678 24.4345C180.925 24.6667 181.049 24.943 181.049 25.2636C181.049 25.5177 180.964 25.7553 180.791 25.9764C180.631 26.1975 180.405 26.3799 180.115 26.5235C179.825 26.6562 179.487 26.7225 179.1 26.7225C178.37 26.7225 177.737 26.4904 177.199 26.0262C176.663 25.5619 176.261 25.0701 175.992 24.5506L171.998 26.3577C172.362 27.253 172.905 28.0377 173.624 28.7119C174.344 29.3751 175.171 29.8891 176.105 30.2538Z" fill="white"/>
<path d="M206.263 30.5357V12.6966H211.111V14.9679H211.199C211.579 14.4252 212.005 13.9666 212.48 13.5918C213.447 12.8181 214.59 12.4313 215.911 12.4313C217.005 12.4313 217.934 12.7076 218.697 13.2603C219.285 13.6722 219.764 14.2248 220.135 14.9182H220.226C220.775 14.1982 221.441 13.6344 222.224 13.2271C223.244 12.6966 224.355 12.4313 225.558 12.4313C226.706 12.4313 227.652 12.6413 228.392 13.0613C229.133 13.4702 229.713 14.0119 230.131 14.6861C230.55 15.3493 230.846 16.0787 231.017 16.8745C231.19 17.6592 231.276 18.4219 231.276 19.1625V30.5357H226.153V19.809C226.153 18.8364 225.955 18.0903 225.558 17.5708C225.171 17.0403 224.602 16.7751 223.851 16.7751C223.356 16.7751 222.916 16.8911 222.53 17.1232C222.154 17.3443 221.854 17.6813 221.628 18.1345C221.413 18.5877 221.306 19.1459 221.306 19.809V30.5357H216.217V19.809C216.217 18.8364 216.018 18.0903 215.62 17.5708C215.223 17.0403 214.649 16.7751 213.897 16.7751C213.168 16.7751 212.561 17.0348 212.077 17.5543C211.595 18.0627 211.353 18.8253 211.353 19.8422V30.5357H206.263Z" fill="white"/>
<path d="M193.809 30.8009C192.617 30.8009 191.533 30.5412 190.556 30.0218C189.579 29.4912 188.8 28.7175 188.22 27.7006C187.652 26.6728 187.367 25.4072 187.367 23.904V12.6966H192.456V23.2077C192.456 24.2356 192.714 25.0203 193.229 25.5619C193.755 26.0925 194.395 26.3577 195.146 26.3577C195.704 26.3577 196.193 26.2306 196.612 25.9764C197.041 25.7222 197.374 25.363 197.61 24.8987C197.857 24.4235 197.98 23.8598 197.98 23.2077V12.6966H203.07V24.2854C203.07 24.9264 203.161 25.3906 203.343 25.678C203.526 25.9653 203.896 26.2141 204.455 26.424L202.651 30.8009C201.373 30.4583 200.439 30.0107 199.849 29.4581C199.552 29.1796 199.326 28.8591 199.173 28.4965H199.044C198.594 28.9618 198.095 29.3763 197.546 29.7399C196.461 30.4472 195.216 30.8009 193.809 30.8009Z" fill="white"/>
<path fill-rule="evenodd" clip-rule="evenodd" d="M134.716 30.8009C133.052 30.8009 131.532 30.4086 130.158 29.6238C128.794 28.8391 127.705 27.7559 126.888 26.3743C126.083 24.9927 125.681 23.4011 125.681 21.5995C125.681 19.798 126.083 18.2064 126.888 16.8248C127.705 15.4432 128.794 14.3655 130.158 13.5918C131.532 12.8181 133.052 12.4313 134.716 12.4313C136.413 12.4313 137.942 12.8181 139.306 13.5918C140.67 14.3655 141.749 15.4432 142.544 16.8248C143.349 18.2064 143.751 19.798 143.751 21.5995C143.751 23.4011 143.349 24.9927 142.544 26.3743C141.749 27.7559 140.665 28.8391 139.29 29.6238C137.927 30.4086 136.402 30.8009 134.716 30.8009ZM134.716 26.3245C135.51 26.3245 136.224 26.1257 136.858 25.7278C137.492 25.3299 137.991 24.7772 138.356 24.0698C138.721 23.3625 138.903 22.539 138.903 21.5995C138.903 20.6933 138.727 19.8864 138.372 19.179C138.018 18.4716 137.529 17.919 136.907 17.5211C136.283 17.1121 135.564 16.9076 134.749 16.9076C133.943 16.9076 133.218 17.1066 132.574 17.5045C131.94 17.8914 131.441 18.4384 131.076 19.1459C130.711 19.8532 130.529 20.6711 130.529 21.5995C130.529 22.539 130.711 23.3625 131.076 24.0698C131.452 24.7772 131.957 25.3299 132.59 25.7278C133.224 26.1257 133.932 26.3245 134.716 26.3245Z" fill="white"/>
<path fill-rule="evenodd" clip-rule="evenodd" d="M110.618 37.217C111.82 37.5818 113.141 37.7641 114.579 37.7641C115.922 37.7641 117.151 37.5873 118.268 37.2336C119.384 36.891 120.351 36.3715 121.166 35.6752C121.993 34.9789 122.632 34.1168 123.084 33.0888C123.534 32.0609 123.76 30.8673 123.76 29.5078V12.68H119.137V14.4208H119.041C118.734 14.1177 118.401 13.8414 118.042 13.5918C116.926 12.8071 115.621 12.4148 114.129 12.4148C112.84 12.4148 111.6 12.7518 110.408 13.4261C109.216 14.0892 108.24 15.084 107.477 16.4103C106.725 17.7256 106.349 19.3779 106.349 21.3675C106.349 22.8596 106.569 24.1582 107.01 25.2636C107.45 26.3688 108.035 27.2917 108.766 28.0323C109.507 28.7617 110.327 29.3088 111.23 29.6735C112.132 30.0273 113.039 30.2041 113.951 30.2041C115.423 30.2041 116.732 29.7896 117.882 28.9607C118.245 28.6949 118.585 28.402 118.899 28.082H118.976V29.8062C118.976 30.6573 118.708 31.3425 118.171 31.862C117.635 32.3926 116.985 32.7794 116.223 33.0225C115.46 33.2657 114.724 33.3873 114.016 33.3873C113.189 33.3873 112.373 33.2491 111.568 32.9728C110.773 32.7075 110.075 32.387 109.475 32.0112L107.799 36.1229C108.487 36.4987 109.426 36.8634 110.618 37.217ZM117.253 25.3464C116.663 25.7444 115.981 25.9432 115.208 25.9432C114.445 25.9432 113.774 25.7444 113.195 25.3464C112.615 24.9375 112.159 24.3793 111.826 23.6719C111.493 22.9535 111.326 22.1301 111.326 21.2016C111.326 20.2732 111.493 19.4663 111.826 18.7811C112.169 18.0958 112.642 17.5708 113.243 17.2061C113.845 16.8303 114.526 16.6424 115.288 16.6424C116.05 16.6424 116.722 16.8248 117.302 17.1895C117.882 17.5543 118.338 18.0793 118.67 18.7645C119.003 19.4388 119.17 20.2511 119.17 21.2016C119.17 22.1411 118.998 22.9701 118.655 23.6885C118.311 24.3959 117.843 24.9485 117.253 25.3464Z" fill="white"/>
<path fill-rule="evenodd" clip-rule="evenodd" d="M96.0217 30.8009C94.3577 30.8009 92.8384 30.4086 91.4638 29.6238C90.1004 28.8391 89.0101 27.7559 88.1946 26.3743C87.3894 24.9927 86.9864 23.4011 86.9864 21.5995C86.9864 19.798 87.3894 18.2064 88.1946 16.8248C89.0101 15.4432 90.1004 14.3655 91.4638 13.5918C92.8384 12.8181 94.3577 12.4313 96.0217 12.4313C97.7179 12.4313 99.2485 12.8181 100.612 13.5918C101.975 14.3655 103.054 15.4432 103.849 16.8248C104.654 18.2064 105.057 19.798 105.057 21.5995C105.057 23.4011 104.654 24.9927 103.849 26.3743C103.054 27.7559 101.97 28.8391 100.595 29.6238C99.232 30.4086 97.7075 30.8009 96.0217 30.8009ZM96.0217 26.3245C96.8165 26.3245 97.5298 26.1257 98.1634 25.7278C98.7969 25.3299 99.2961 24.7772 99.6619 24.0698C100.027 23.3625 100.209 22.539 100.209 21.5995C100.209 20.6933 100.032 19.8864 99.6775 19.179C99.323 18.4716 98.8351 17.919 98.2119 17.5211C97.5896 17.1121 96.8694 16.9076 96.0538 16.9076C95.2486 16.9076 94.5241 17.1066 93.8793 17.5045C93.2457 17.8914 92.7465 18.4384 92.3816 19.1459C92.0167 19.8532 91.8338 20.6711 91.8338 21.5995C91.8338 22.539 92.0167 23.3625 92.3816 24.0698C92.7577 24.7772 93.2622 25.3299 93.8957 25.7278C94.5293 26.1257 95.2374 26.3245 96.0217 26.3245Z" fill="white"/>
<path d="M73.2277 6.09811V30.5357H87.0626V25.6946H78.5103V6.09811H73.2277Z" fill="white"/>
</svg>
